<svg width="220" height="60" viewBox="0 0 220 60" fill="none" xmlns="http://www.w3.org/2000/svg">
<path d="M52.7625 37.1242H14.2794C13.8187 37.1242 13.4419 37.5039 13.4419 37.968L13.4314 43.0307C13.4314 43.4948 13.8083 43.8745 14.2689 43.8745H52.7625C53.2231 43.8745 53.6 43.4948 53.6 43.0307V37.968C53.6 37.5039 53.2231 37.1242 52.7625 37.1242ZM52.7625 47.2497H14.248C13.7873 47.2497 13.4105 47.6294 13.4105 48.0935L13.4 53.1562C13.4 53.6203 13.7769 54 14.2375 54H52.7625C53.2231 54 53.6 53.6203 53.6 53.1562V48.0935C53.6 47.6294 53.2231 47.2497 52.7625 47.2497ZM52.7625 26.9987H14.3003C13.8397 26.9987 13.4628 27.3784 13.4628 27.8425L13.4523 32.9052C13.4523 33.3693 13.8292 33.749 14.2898 33.749H52.7625C53.2231 33.749 53.6 33.3693 53.6 32.9052V27.8425C53.6 27.3784 53.2231 26.9987 52.7625 26.9987ZM63.9117 12.3378L35.4263 0.387623C34.814 0.131721 34.1576 0 33.4948 0C32.8319 0 32.1755 0.131721 31.5633 0.387623L3.08828 12.3378C1.22484 13.1289 0 14.9641 0 17.0103V53.1562C0 53.6203 0.376875 54 0.8375 54H9.2125C9.67313 54 10.05 53.6203 10.05 53.1562V26.9987C10.05 25.1423 11.5784 23.6235 13.4628 23.6235H53.5372C55.4216 23.6235 56.95 25.1423 56.95 26.9987V53.1562C56.95 53.6203 57.3269 54 57.7875 54H66.1625C66.6231 54 67 53.6203 67 53.1562V17.0103C67 14.9641 65.7752 13.1289 63.9117 12.3378Z" fill="#FFD600"/>
<path d="M91.7644 30L86.4781 11.5249H90.745L93.8032 24.3619H93.9565L97.3304 11.5249H100.984L104.349 24.3889H104.511L107.569 11.5249H111.836L106.55 30H102.743L99.2248 17.9209H99.0805L95.5713 30H91.7644Z" fill="black"/>
<path d="M117.698 21.9893V30H113.855V11.5249H117.589V18.5884H117.752C118.064 17.7705 118.57 17.13 119.267 16.6669C119.965 16.1978 120.84 15.9633 121.892 15.9633C122.855 15.9633 123.694 16.1738 124.409 16.5948C125.131 17.0097 125.69 17.6081 126.087 18.39C126.49 19.1658 126.689 20.0949 126.683 21.1774V30H122.84V21.863C122.846 21.0091 122.629 20.3445 122.19 19.8694C121.757 19.3943 121.15 19.1567 120.368 19.1567C119.845 19.1567 119.382 19.268 118.979 19.4905C118.582 19.713 118.269 20.0378 118.04 20.4648C117.818 20.8858 117.704 21.394 117.698 21.9893Z" fill="black"/>
<path d="M129.707 30V16.1437H133.55V30H129.707ZM131.637 14.3575C131.066 14.3575 130.576 14.1681 130.167 13.7892C129.764 13.4043 129.563 12.9443 129.563 12.409C129.563 11.8798 129.764 11.4257 130.167 11.0468C130.576 10.6619 131.066 10.4695 131.637 10.4695C132.209 10.4695 132.696 10.6619 133.099 11.0468C133.508 11.4257 133.712 11.8798 133.712 12.409C133.712 12.9443 133.508 13.4043 133.099 13.7892C132.696 14.1681 132.209 14.3575 131.637 14.3575Z" fill="black"/>
<path d="M143.998 16.1437V19.0304H135.654V16.1437H143.998ZM137.548 12.824H141.391V25.7421C141.391 26.0969 141.445 26.3736 141.554 26.572C141.662 26.7645 141.812 26.8998 142.005 26.978C142.203 27.0562 142.432 27.0952 142.69 27.0952C142.871 27.0952 143.051 27.0802 143.232 27.0501C143.412 27.0141 143.55 26.987 143.647 26.969L144.251 29.8286C144.059 29.8888 143.788 29.9579 143.439 30.0361C143.09 30.1203 142.666 30.1714 142.167 30.1895C141.241 30.2255 140.429 30.1023 139.732 29.8196C139.04 29.5369 138.502 29.0979 138.117 28.5025C137.732 27.9071 137.542 27.1554 137.548 26.2473V12.824Z" fill="black"/>
<path d="M152.668 30.2707C151.242 30.2707 150.015 29.982 148.987 29.4046C147.965 28.8213 147.177 27.9974 146.624 26.9329C146.07 25.8624 145.794 24.5964 145.794 23.135C145.794 21.7097 146.07 20.4588 146.624 19.3823C147.177 18.3058 147.956 17.4668 148.96 16.8654C149.97 16.264 151.155 15.9633 152.514 15.9633C153.428 15.9633 154.279 16.1106 155.067 16.4053C155.861 16.694 156.553 17.13 157.142 17.7134C157.737 18.2967 158.201 19.0304 158.531 19.9145C158.862 20.7926 159.027 21.821 159.027 22.9997V24.0552H147.327V21.6736H155.41C155.41 21.1203 155.29 20.6302 155.049 20.2032C154.809 19.7762 154.475 19.4424 154.048 19.2018C153.627 18.9553 153.137 18.832 152.577 18.832C151.994 18.832 151.477 18.9673 151.026 19.2379C150.581 19.5025 150.232 19.8604 149.979 20.3114C149.727 20.7565 149.598 21.2526 149.591 21.7999V24.0642C149.591 24.7498 149.718 25.3422 149.97 25.8413C150.229 26.3405 150.593 26.7254 151.062 26.996C151.531 27.2666 152.087 27.402 152.731 27.402C153.158 27.402 153.549 27.3418 153.904 27.2215C154.258 27.1013 154.562 26.9208 154.815 26.6803C155.067 26.4397 155.26 26.145 155.392 25.7962L158.946 26.0308C158.766 26.8848 158.396 27.6305 157.837 28.268C157.283 28.8995 156.568 29.3926 155.69 29.7474C154.818 30.0962 153.81 30.2707 152.668 30.2707Z" fill="black"/>
<path d="M165.378 11.5249V30H161.535V11.5249H165.378Z" fill="black"/>
<path d="M174.771 30.2707C173.346 30.2707 172.119 29.982 171.091 29.4046C170.068 28.8213 169.281 27.9974 168.727 26.9329C168.174 25.8624 167.897 24.5964 167.897 23.135C167.897 21.7097 168.174 20.4588 168.727 19.3823C169.281 18.3058 170.059 17.4668 171.064 16.8654C172.074 16.264 173.259 15.9633 174.618 15.9633C175.532 15.9633 176.383 16.1106 177.171 16.4053C177.965 16.694 178.657 17.13 179.246 17.7134C179.841 18.2967 180.304 19.0304 180.635 19.9145C180.966 20.7926 181.131 21.821 181.131 22.9997V24.0552H169.431V21.6736H177.514C177.514 21.1203 177.394 20.6302 177.153 20.2032C176.912 19.7762 176.579 19.4424 176.152 19.2018C175.731 18.9553 175.241 18.832 174.681 18.832C174.098 18.832 173.581 18.9673 173.13 19.2379C172.685 19.5025 172.336 19.8604 172.083 20.3114C171.831 20.7565 171.701 21.2526 171.695 21.7999V24.0642C171.695 24.7498 171.822 25.3422 172.074 25.8413C172.333 26.3405 172.697 26.7254 173.166 26.996C173.635 27.2666 174.191 27.402 174.835 27.402C175.262 27.402 175.653 27.3418 176.007 27.2215C176.362 27.1013 176.666 26.9208 176.918 26.6803C177.171 26.4397 177.363 26.145 177.496 25.7962L181.05 26.0308C180.87 26.8848 180.5 27.6305 179.941 28.268C179.387 28.8995 178.672 29.3926 177.794 29.7474C176.921 30.0962 175.914 30.2707 174.771 30.2707Z" fill="black"/>
<path d="M183.639 30V16.1437H187.482V30H183.639ZM185.57 14.3575C184.998 14.3575 184.508 14.1681 184.099 13.7892C183.696 13.4043 183.495 12.9443 183.495 12.409C183.495 11.8798 183.696 11.4257 184.099 11.0468C184.508 10.6619 184.998 10.4695 185.57 10.4695C186.141 10.4695 186.628 10.6619 187.031 11.0468C187.44 11.4257 187.644 11.8798 187.644 12.409C187.644 12.9443 187.44 13.4043 187.031 13.7892C186.628 14.1681 186.141 14.3575 185.57 14.3575Z" fill="black"/>
<path d="M196.803 35.4848C195.558 35.4848 194.491 35.3134 193.601 34.9706C192.717 34.6338 192.013 34.1738 191.49 33.5904C190.966 33.007 190.627 32.3515 190.47 31.6238L194.025 31.1457C194.133 31.4223 194.304 31.6809 194.539 31.9215C194.773 32.1621 195.083 32.3545 195.468 32.4988C195.859 32.6492 196.334 32.7244 196.893 32.7244C197.729 32.7244 198.418 32.5199 198.959 32.1109C199.506 31.708 199.78 31.0314 199.78 30.0812V27.5463H199.618C199.449 27.9312 199.197 28.295 198.86 28.6378C198.523 28.9806 198.09 29.2603 197.561 29.4768C197.032 29.6933 196.4 29.8016 195.666 29.8016C194.626 29.8016 193.679 29.561 192.825 29.0799C191.977 28.5927 191.3 27.85 190.795 26.8517C190.296 25.8473 190.046 24.5784 190.046 23.0448C190.046 21.4751 190.302 20.1641 190.813 19.1116C191.324 18.0592 192.004 17.2713 192.852 16.7481C193.706 16.2249 194.641 15.9633 195.657 15.9633C196.433 15.9633 197.083 16.0956 197.606 16.3602C198.129 16.6188 198.55 16.9436 198.869 17.3345C199.194 17.7194 199.443 18.0983 199.618 18.4711H199.762V16.1437H203.578V30.1353C203.578 31.3141 203.289 32.3004 202.712 33.0942C202.134 33.8881 201.335 34.4835 200.312 34.8804C199.296 35.2833 198.126 35.4848 196.803 35.4848ZM196.884 26.9148C197.504 26.9148 198.027 26.7615 198.454 26.4548C198.887 26.142 199.218 25.697 199.446 25.1196C199.681 24.5363 199.798 23.8387 199.798 23.0268C199.798 22.2149 199.684 21.5112 199.455 20.9158C199.227 20.3144 198.896 19.8484 198.463 19.5176C198.03 19.1868 197.504 19.0214 196.884 19.0214C196.253 19.0214 195.721 19.1928 195.288 19.5356C194.855 19.8724 194.527 20.3415 194.304 20.9429C194.082 21.5443 193.97 22.2389 193.97 23.0268C193.97 23.8266 194.082 24.5182 194.304 25.1016C194.533 25.6789 194.861 26.127 195.288 26.4457C195.721 26.7585 196.253 26.9148 196.884 26.9148Z" fill="black"/>
<path d="M210.479 21.9893V30H206.636V11.5249H210.371V18.5884H210.533C210.846 17.7705 211.351 17.13 212.049 16.6669C212.746 16.1978 213.621 15.9633 214.674 15.9633C215.636 15.9633 216.475 16.1738 217.191 16.5948C217.912 17.0097 218.472 17.6081 218.869 18.39C219.271 19.1658 219.47 20.0949 219.464 21.1774V30H215.621V21.863C215.627 21.0091 215.41 20.3445 214.971 19.8694C214.538 19.3943 213.931 19.1567 213.149 19.1567C212.626 19.1567 212.163 19.268 211.76 19.4905C211.363 19.713 211.05 20.0378 210.822 20.4648C210.599 20.8858 210.485 21.394 210.479 21.9893Z" fill="black"/>
<path d="M97.6281 40.8383C97.5559 40.1106 97.2462 39.5453 96.6989 39.1424C96.1516 38.7394 95.4089 38.538 94.4707 38.538C93.8332 38.538 93.295 38.6282 92.856 38.8086C92.4169 38.983 92.0802 39.2266 91.8456 39.5393C91.6171 39.852 91.5028 40.2069 91.5028 40.6038C91.4908 40.9346 91.5599 41.2232 91.7103 41.4698C91.8667 41.7164 92.0802 41.9299 92.3508 42.1103C92.6214 42.2847 92.9341 42.4381 93.289 42.5704C93.6438 42.6967 94.0227 42.8049 94.4256 42.8951L96.0855 43.2921C96.8914 43.4725 97.6311 43.713 98.3047 44.0137C98.9782 44.3144 99.5616 44.6843 100.055 45.1233C100.548 45.5623 100.93 46.0796 101.2 46.6749C101.477 47.2703 101.618 47.9529 101.624 48.7227C101.618 49.8533 101.33 50.8336 100.758 51.6636C100.193 52.4875 99.3752 53.128 98.3047 53.5851C97.2402 54.0361 95.9562 54.2616 94.4527 54.2616C92.9612 54.2616 91.6622 54.0331 90.5556 53.576C89.455 53.119 88.595 52.4424 87.9756 51.5463C87.3621 50.6442 87.0404 49.5286 87.0103 48.1995H90.7901C90.8322 48.8189 91.0097 49.3361 91.3224 49.7511C91.6411 50.1601 92.0651 50.4698 92.5943 50.6803C93.1296 50.8848 93.734 50.987 94.4076 50.987C95.0691 50.987 95.6435 50.8908 96.1306 50.6983C96.6237 50.5059 97.0056 50.2383 97.2763 49.8955C97.5469 49.5527 97.6822 49.1587 97.6822 48.7137C97.6822 48.2987 97.5589 47.9499 97.3123 47.6673C97.0718 47.3846 96.717 47.144 96.2479 46.9456C95.7848 46.7471 95.2165 46.5667 94.5429 46.4043L92.5312 45.8991C90.9736 45.5202 89.7437 44.9279 88.8416 44.122C87.9395 43.3161 87.4915 42.2306 87.4975 40.8654C87.4915 39.7468 87.7891 38.7695 88.3905 37.9336C88.998 37.0976 89.8309 36.4451 90.8894 35.976C91.9478 35.5069 93.1506 35.2724 94.4978 35.2724C95.869 35.2724 97.0658 35.5069 98.0882 35.976C99.1166 36.4451 99.9164 37.0976 100.488 37.9336C101.059 38.7695 101.354 39.7378 101.372 40.8383H97.6281Z" fill="black"/>
<path d="M111.55 40.1437V43.0304H103.205V40.1437H111.55ZM105.1 36.824H108.943V49.7421C108.943 50.0969 108.997 50.3736 109.105 50.572C109.213 50.7645 109.364 50.8998 109.556 50.978C109.755 51.0562 109.983 51.0952 110.242 51.0952C110.422 51.0952 110.603 51.0802 110.783 51.0501C110.963 51.0141 111.102 50.987 111.198 50.969L111.802 53.8286C111.61 53.8888 111.339 53.9579 110.99 54.0361C110.642 54.1203 110.218 54.1714 109.719 54.1895C108.792 54.2255 107.98 54.1023 107.283 53.8196C106.591 53.5369 106.053 53.0979 105.668 52.5025C105.283 51.9071 105.094 51.1554 105.1 50.2473V36.824Z" fill="black"/>
<path d="M120.165 54.2706C118.764 54.2706 117.552 53.973 116.529 53.3776C115.513 52.7762 114.728 51.9402 114.175 50.8697C113.622 49.7932 113.345 48.5453 113.345 47.126C113.345 45.6947 113.622 44.4437 114.175 43.3732C114.728 42.2967 115.513 41.4608 116.529 40.8654C117.552 40.264 118.764 39.9633 120.165 39.9633C121.566 39.9633 122.775 40.264 123.791 40.8654C124.814 41.4608 125.602 42.2967 126.155 43.3732C126.708 44.4437 126.985 45.6947 126.985 47.126C126.985 48.5453 126.708 49.7932 126.155 50.8697C125.602 51.9402 124.814 52.7762 123.791 53.3776C122.775 53.973 121.566 54.2706 120.165 54.2706ZM120.183 51.2937C120.82 51.2937 121.353 51.1133 121.78 50.7524C122.207 50.3856 122.528 49.8864 122.745 49.255C122.967 48.6235 123.079 47.9048 123.079 47.0989C123.079 46.2931 122.967 45.5744 122.745 44.9429C122.528 44.3114 122.207 43.8123 121.78 43.4454C121.353 43.0786 120.82 42.8951 120.183 42.8951C119.539 42.8951 118.998 43.0786 118.559 43.4454C118.126 43.8123 117.798 44.3114 117.576 44.9429C117.359 45.5744 117.251 46.2931 117.251 47.0989C117.251 47.9048 117.359 48.6235 117.576 49.255C117.798 49.8864 118.126 50.3856 118.559 50.7524C118.998 51.1133 119.539 51.2937 120.183 51.2937Z" fill="black"/>
<path d="M129.484 54V40.1437H133.209V42.5614H133.354C133.606 41.7013 134.03 41.0518 134.626 40.6128C135.221 40.1678 135.907 39.9452 136.682 39.9452C136.875 39.9452 137.082 39.9573 137.305 39.9813C137.527 40.0054 137.723 40.0385 137.891 40.0806V43.4905C137.711 43.4364 137.461 43.3883 137.142 43.3462C136.824 43.3041 136.532 43.283 136.267 43.283C135.702 43.283 135.197 43.4063 134.752 43.6529C134.313 43.8935 133.964 44.2302 133.705 44.6632C133.453 45.0963 133.327 45.5954 133.327 46.1607V54H129.484Z" fill="black"/>
<path d="M143.432 54.2616C142.548 54.2616 141.76 54.1083 141.069 53.8016C140.377 53.4888 139.83 53.0288 139.427 52.4213C139.03 51.8079 138.832 51.0441 138.832 50.13C138.832 49.3602 138.973 48.7137 139.256 48.1905C139.538 47.6673 139.923 47.2463 140.41 46.9275C140.897 46.6088 141.451 46.3682 142.07 46.2058C142.696 46.0435 143.351 45.9292 144.037 45.863C144.843 45.7789 145.492 45.7007 145.985 45.6285C146.478 45.5503 146.836 45.4361 147.059 45.2857C147.281 45.1353 147.393 44.9128 147.393 44.6181V44.564C147.393 43.9927 147.212 43.5507 146.851 43.2379C146.497 42.9252 145.991 42.7688 145.336 42.7688C144.644 42.7688 144.094 42.9222 143.685 43.2289C143.276 43.5296 143.005 43.9085 142.873 44.3656L139.319 44.0769C139.499 43.2349 139.854 42.5072 140.383 41.8938C140.913 41.2743 141.595 40.7992 142.431 40.4685C143.273 40.1317 144.247 39.9633 145.354 39.9633C146.124 39.9633 146.86 40.0535 147.564 40.2339C148.274 40.4143 148.902 40.694 149.449 41.0729C150.003 41.4518 150.439 41.9389 150.757 42.5343C151.076 43.1237 151.236 43.8303 151.236 44.6542V54H147.591V52.0785H147.483C147.26 52.5116 146.963 52.8934 146.59 53.2242C146.217 53.549 145.769 53.8046 145.246 53.991C144.722 54.1714 144.118 54.2616 143.432 54.2616ZM144.533 51.6094C145.098 51.6094 145.597 51.4982 146.03 51.2757C146.463 51.0471 146.803 50.7404 147.05 50.3555C147.296 49.9706 147.42 49.5346 147.42 49.0475V47.577C147.299 47.6552 147.134 47.7274 146.924 47.7935C146.719 47.8537 146.487 47.9108 146.229 47.9649C145.97 48.0131 145.712 48.0582 145.453 48.1003C145.194 48.1363 144.96 48.1694 144.749 48.1995C144.298 48.2656 143.904 48.3709 143.568 48.5152C143.231 48.6596 142.969 48.855 142.783 49.1016C142.596 49.3422 142.503 49.6429 142.503 50.0037C142.503 50.5269 142.693 50.9269 143.072 51.2035C143.456 51.4741 143.944 51.6094 144.533 51.6094Z" fill="black"/>
<path d="M160.46 59.4848C159.215 59.4848 158.147 59.3134 157.257 58.9706C156.373 58.6338 155.669 58.1737 155.146 57.5904C154.623 57.007 154.283 56.3515 154.127 55.6238L157.681 55.1457C157.789 55.4223 157.961 55.6809 158.195 55.9215C158.43 56.1621 158.74 56.3545 159.124 56.4988C159.515 56.6492 159.99 56.7244 160.55 56.7244C161.386 56.7244 162.074 56.5199 162.616 56.1109C163.163 55.708 163.437 55.0314 163.437 54.0812V51.5463H163.274C163.106 51.9312 162.853 52.295 162.516 52.6378C162.18 52.9806 161.747 53.2603 161.217 53.4768C160.688 53.6933 160.057 53.8016 159.323 53.8016C158.283 53.8016 157.335 53.561 156.481 53.0799C155.633 52.5927 154.957 51.85 154.452 50.8517C153.952 49.8473 153.703 48.5784 153.703 47.0448C153.703 45.4751 153.958 44.1641 154.47 43.1116C154.981 42.0592 155.66 41.2713 156.508 40.7481C157.362 40.2249 158.298 39.9633 159.314 39.9633C160.09 39.9633 160.739 40.0956 161.262 40.3602C161.786 40.6188 162.207 40.9436 162.525 41.3345C162.85 41.7194 163.1 42.0983 163.274 42.4711H163.418V40.1437H167.234V54.1353C167.234 55.3141 166.946 56.3004 166.368 57.0942C165.791 57.8881 164.991 58.4835 163.969 58.8804C162.952 59.2833 161.783 59.4848 160.46 59.4848ZM160.541 50.9148C161.16 50.9148 161.683 50.7615 162.11 50.4548C162.543 50.142 162.874 49.697 163.103 49.1196C163.337 48.5363 163.455 47.8387 163.455 47.0268C163.455 46.2149 163.34 45.5112 163.112 44.9158C162.883 44.3144 162.552 43.8484 162.119 43.5176C161.686 43.1868 161.16 43.0214 160.541 43.0214C159.909 43.0214 159.377 43.1928 158.944 43.5356C158.511 43.8724 158.183 44.3415 157.961 44.9429C157.738 45.5443 157.627 46.2389 157.627 47.0268C157.627 47.8266 157.738 48.5182 157.961 49.1016C158.189 49.6789 158.517 50.127 158.944 50.4457C159.377 50.7585 159.909 50.9148 160.541 50.9148Z" fill="black"/>
<path d="M176.607 54.2706C175.182 54.2706 173.955 53.982 172.927 53.4046C171.904 52.8213 171.116 51.9974 170.563 50.9329C170.01 49.8624 169.733 48.5964 169.733 47.135C169.733 45.7097 170.01 44.4588 170.563 43.3823C171.116 42.3058 171.895 41.4668 172.9 40.8654C173.91 40.264 175.095 39.9633 176.454 39.9633C177.368 39.9633 178.219 40.1106 179.007 40.4053C179.801 40.694 180.492 41.13 181.082 41.7134C181.677 42.2967 182.14 43.0304 182.471 43.9145C182.802 44.7926 182.967 45.8209 182.967 46.9997V48.0552H171.267V45.6736H179.35C179.35 45.1203 179.229 44.6302 178.989 44.2032C178.748 43.7762 178.414 43.4424 177.987 43.2018C177.566 42.9553 177.076 42.832 176.517 42.832C175.934 42.832 175.416 42.9673 174.965 43.2379C174.52 43.5025 174.172 43.8604 173.919 44.3114C173.666 44.7565 173.537 45.2526 173.531 45.7999V48.0642C173.531 48.7498 173.657 49.3422 173.91 49.8413C174.169 50.3405 174.532 50.7254 175.001 50.996C175.471 51.2666 176.027 51.402 176.67 51.402C177.097 51.402 177.488 51.3418 177.843 51.2215C178.198 51.1013 178.502 50.9208 178.754 50.6803C179.007 50.4397 179.199 50.145 179.332 49.7962L182.886 50.0308C182.705 50.8848 182.336 51.6305 181.776 52.268C181.223 52.8995 180.507 53.3926 179.629 53.7474C178.757 54.0962 177.75 54.2706 176.607 54.2706Z" fill="black"/>
</svg>
